<svg width="25" height="22" viewBox="0 0 25 22" fill="none" xmlns="http://www.w3.org/2000/svg">
<path d="M9.32753 16.6216L8.99965 16.9991L9.32753 16.6216L0.733596 9.15734C0.4223 8.88694 0.421982 8.39905 0.73356 8.12837C0.733572 8.12836 0.733584 8.12835 0.733596 8.12834L9.32751 0.664829L9.32753 0.664812C9.75669 0.29206 10.4375 0.593853 10.4375 1.1793V5.11047V5.60475L10.9317 5.61044C14.843 5.65547 18.254 6.0752 20.6762 7.35635C21.876 7.99098 22.8235 8.83221 23.4746 9.94023C24.1264 11.0495 24.5 12.4584 24.5 14.2571C24.5 17.0811 22.6733 19.9321 20.6358 21.4225L20.931 21.826L20.6358 21.4225C20.4909 21.5285 20.3156 21.5206 20.1782 21.4302C20.0458 21.3431 19.9904 21.2112 20.0375 21.0596L19.5601 20.9111L20.0375 21.0596C21.1581 17.4555 20.9684 14.9384 19.2585 13.3544C18.4272 12.5843 17.2847 12.0869 15.9016 11.7723C14.5167 11.4574 12.8537 11.3176 10.9447 11.2899L10.4375 11.2826V11.7899V16.1071C10.4375 16.693 9.75665 16.9943 9.32753 16.6216Z" stroke="#A9A9A9"/>
</svg>
