<svg width="16" height="18" viewBox="0 0 16 18" fill="none" xmlns="http://www.w3.org/2000/svg">
<path d="M0 15.7919C0 16.6927 0.767857 17.4235 1.71429 17.4235H14.2857C15.2321 17.4235 16 16.6927 16 15.7919V6.54654H0V15.7919ZM11.4286 9.12981C11.4286 8.90547 11.6214 8.72192 11.8571 8.72192H13.2857C13.5214 8.72192 13.7143 8.90547 13.7143 9.12981V10.4894C13.7143 10.7138 13.5214 10.8973 13.2857 10.8973H11.8571C11.6214 10.8973 11.4286 10.7138 11.4286 10.4894V9.12981ZM11.4286 13.4806C11.4286 13.2562 11.6214 13.0727 11.8571 13.0727H13.2857C13.5214 13.0727 13.7143 13.2562 13.7143 13.4806V14.8402C13.7143 15.0645 13.5214 15.2481 13.2857 15.2481H11.8571C11.6214 15.2481 11.4286 15.0645 11.4286 14.8402V13.4806ZM6.85714 9.12981C6.85714 8.90547 7.05 8.72192 7.28571 8.72192H8.71429C8.95 8.72192 9.14286 8.90547 9.14286 9.12981V10.4894C9.14286 10.7138 8.95 10.8973 8.71429 10.8973H7.28571C7.05 10.8973 6.85714 10.7138 6.85714 10.4894V9.12981ZM6.85714 13.4806C6.85714 13.2562 7.05 13.0727 7.28571 13.0727H8.71429C8.95 13.0727 9.14286 13.2562 9.14286 13.4806V14.8402C9.14286 15.0645 8.95 15.2481 8.71429 15.2481H7.28571C7.05 15.2481 6.85714 15.0645 6.85714 14.8402V13.4806ZM2.28571 9.12981C2.28571 8.90547 2.47857 8.72192 2.71429 8.72192H4.14286C4.37857 8.72192 4.57143 8.90547 4.57143 9.12981V10.4894C4.57143 10.7138 4.37857 10.8973 4.14286 10.8973H2.71429C2.47857 10.8973 2.28571 10.7138 2.28571 10.4894V9.12981ZM2.28571 13.4806C2.28571 13.2562 2.47857 13.0727 2.71429 13.0727H4.14286C4.37857 13.0727 4.57143 13.2562 4.57143 13.4806V14.8402C4.57143 15.0645 4.37857 15.2481 4.14286 15.2481H2.71429C2.47857 15.2481 2.28571 15.0645 2.28571 14.8402V13.4806ZM14.2857 2.19577H12.5714V0.564232C12.5714 0.265116 12.3143 0.0203857 12 0.0203857H10.8571C10.5429 0.0203857 10.2857 0.265116 10.2857 0.564232V2.19577H5.71429V0.564232C5.71429 0.265116 5.45714 0.0203857 5.14286 0.0203857H4C3.68571 0.0203857 3.42857 0.265116 3.42857 0.564232V2.19577H1.71429C0.767857 2.19577 0 2.92656 0 3.82731V5.45885H16V3.82731C16 2.92656 15.2321 2.19577 14.2857 2.19577Z" fill="#B0B0B0"/>
</svg>
