<svg width="11" height="7" viewBox="0 0 11 7" fill="none" xmlns="http://www.w3.org/2000/svg">
<path d="M10.9336 3.23385C9.89791 1.30503 7.84763 0 5.5 0C3.15237 0 1.10152 1.30594 0.066448 3.23404C0.0227615 3.31653 0 3.40766 0 3.50009C0 3.59252 0.0227615 3.68366 0.066448 3.76615C1.10209 5.69497 3.15237 7 5.5 7C7.84763 7 9.89848 5.69406 10.9336 3.76596C10.9772 3.68347 11 3.59234 11 3.49991C11 3.40748 10.9772 3.31634 10.9336 3.23385ZM5.5 6.125C4.9561 6.125 4.42441 5.97105 3.97218 5.68261C3.51994 5.39417 3.16747 4.9842 2.95933 4.50454C2.75118 4.02489 2.69673 3.49709 2.80284 2.98789C2.90894 2.47869 3.17086 2.01096 3.55545 1.64384C3.94005 1.27673 4.43005 1.02672 4.9635 0.925439C5.49695 0.824153 6.04988 0.876136 6.55238 1.07482C7.05488 1.2735 7.48437 1.60995 7.78655 2.04163C8.08872 2.47331 8.25 2.98082 8.25 3.5C8.25018 3.84477 8.17917 4.18619 8.04103 4.50474C7.90289 4.8233 7.70034 5.11274 7.44494 5.35653C7.18954 5.60032 6.88631 5.79367 6.55259 5.92553C6.21886 6.05738 5.86119 6.12517 5.5 6.125ZM5.5 1.75C5.33636 1.75218 5.17378 1.77542 5.01665 1.81909C5.14617 1.9871 5.20832 2.19386 5.19184 2.40186C5.17535 2.60987 5.08132 2.80535 4.9268 2.95285C4.77227 3.10035 4.56748 3.19011 4.34957 3.20585C4.13166 3.22158 3.91506 3.16225 3.73904 3.03862C3.63881 3.3911 3.65691 3.7647 3.79077 4.10685C3.92464 4.449 4.16754 4.74246 4.48529 4.94593C4.80303 5.1494 5.17963 5.25264 5.56206 5.2411C5.94449 5.22957 6.31351 5.10385 6.61717 4.88165C6.92083 4.65944 7.14384 4.35192 7.25481 4.00239C7.36579 3.65286 7.35914 3.27891 7.23581 2.93318C7.11247 2.58744 6.87866 2.28733 6.56728 2.07508C6.25589 1.86284 5.88262 1.74914 5.5 1.75Z" fill="#6D6D6D"/>
</svg>
