<svg width="6" height="8" viewBox="0 0 6 8" fill="none" xmlns="http://www.w3.org/2000/svg">
<path d="M2.84219 4.00156C2.76406 3.75156 2.76562 3.26875 2.81094 3.26875C2.94219 3.26875 2.92969 3.84531 2.84219 4.00156ZM2.81562 4.73906C2.69531 5.05469 2.54531 5.41563 2.37188 5.71875C2.65781 5.60938 2.98125 5.45 3.35469 5.37656C3.15625 5.22656 2.96563 5.01094 2.81562 4.73906ZM1.34531 6.68906C1.34531 6.70156 1.55156 6.60469 1.89062 6.06094C1.78594 6.15937 1.43594 6.44375 1.34531 6.68906ZM3.875 2.5H6V7.625C6 7.83281 5.83281 8 5.625 8H0.375C0.167187 8 0 7.83281 0 7.625V0.375C0 0.167187 0.167187 0 0.375 0H3.5V2.125C3.5 2.33125 3.66875 2.5 3.875 2.5ZM3.75 5.18437C3.4375 4.99375 3.22969 4.73125 3.08281 4.34375C3.15313 4.05469 3.26406 3.61563 3.17969 3.34063C3.10625 2.88125 2.51719 2.92656 2.43281 3.23438C2.35469 3.52031 2.42656 3.92344 2.55938 4.4375C2.37812 4.86875 2.11094 5.44687 1.92188 5.77812C1.92031 5.77812 1.92031 5.77969 1.91875 5.77969C1.49531 5.99687 0.76875 6.475 1.06719 6.84219C1.15469 6.95 1.31719 6.99844 1.40313 6.99844C1.68281 6.99844 1.96094 6.71719 2.35781 6.03281C2.76094 5.9 3.20312 5.73438 3.59219 5.67031C3.93125 5.85469 4.32812 5.975 4.59219 5.975C5.04844 5.975 5.07969 5.475 4.9 5.29688C4.68281 5.08437 4.05156 5.14531 3.75 5.18437ZM5.89062 1.64062L4.35938 0.109375C4.28906 0.0390625 4.19375 0 4.09375 0H4V2H6V1.90469C6 1.80625 5.96094 1.71094 5.89062 1.64062ZM4.73281 5.62969C4.79688 5.5875 4.69375 5.44375 4.06406 5.48906C4.64375 5.73594 4.73281 5.62969 4.73281 5.62969Z" fill="#929292"/>
</svg>
