<svg width="72" height="65" viewBox="0 0 72 65" fill="none" xmlns="http://www.w3.org/2000/svg">
<path d="M71.3684 24.8573C71.3426 24.8573 71.3174 24.8494 71.2963 24.8345L36.3625 0.367392C36.2562 0.293281 36.1299 0.253674 36.0005 0.253896C35.8712 0.254118 35.745 0.294157 35.6389 0.368633L0.956824 24.8343C0.929391 24.8537 0.895441 24.8613 0.862438 24.8554C0.829435 24.8496 0.800083 24.8308 0.780842 24.8032C0.761601 24.7757 0.754045 24.7415 0.759837 24.7083C0.765629 24.6751 0.784295 24.6456 0.811727 24.6263L35.4939 0.16059C35.6424 0.0563401 35.819 0.000300514 36.0001 1.20524e-06C36.1812 -0.000298103 36.3581 0.0551567 36.5069 0.158916L71.4407 24.626C71.4627 24.6415 71.4793 24.6636 71.488 24.6892C71.4967 24.7148 71.497 24.7425 71.489 24.7684C71.4809 24.7942 71.4649 24.8167 71.4432 24.8327C71.4215 24.8487 71.3953 24.8573 71.3684 24.8573L71.3684 24.8573Z" fill="#3F3D56"/>
<path d="M2.9386 25.7246L36.0349 1.05676L69.3822 27.4798L37.7401 46.3443L20.5612 42.4063L2.9386 25.7246Z" fill="#E6E6E6"/>
<path d="M22.0112 57.9962H5.66086C5.56046 57.9963 5.46102 57.9765 5.36823 57.938C5.27544 57.8994 5.19112 57.8429 5.12008 57.7715C5.04904 57.7002 4.99269 57.6154 4.95424 57.5222C4.91579 57.4289 4.896 57.3289 4.896 57.2279C4.896 57.127 4.91579 57.027 4.95424 56.9337C4.99269 56.8405 5.04904 56.7557 5.12008 56.6844C5.19112 56.613 5.27544 56.5565 5.36823 56.5179C5.46102 56.4794 5.56046 56.4596 5.66086 56.4597H22.0112C22.1116 56.4596 22.211 56.4794 22.3038 56.5179C22.3966 56.5565 22.481 56.613 22.552 56.6844C22.623 56.7557 22.6794 56.8405 22.7178 56.9337C22.7563 57.027 22.7761 57.127 22.7761 57.2279C22.7761 57.3289 22.7563 57.4289 22.7178 57.5222C22.6794 57.6154 22.623 57.7002 22.552 57.7715C22.481 57.8429 22.3966 57.8994 22.3038 57.938C22.211 57.9765 22.1116 57.9963 22.0112 57.9962Z" fill="#2B3C90"/>
<path d="M11.527 54.6933H5.66086C5.56046 54.6934 5.46102 54.6736 5.36823 54.6351C5.27544 54.5966 5.19112 54.54 5.12008 54.4686C5.04904 54.3973 4.99269 54.3126 4.95424 54.2193C4.91579 54.126 4.896 54.026 4.896 53.9251C4.896 53.8241 4.91579 53.7241 4.95424 53.6309C4.99269 53.5376 5.04904 53.4529 5.12008 53.3815C5.19112 53.3102 5.27544 53.2536 5.36823 53.2151C5.46102 53.1765 5.56046 53.1567 5.66086 53.1569H11.527C11.6274 53.1567 11.7268 53.1765 11.8196 53.2151C11.9124 53.2536 11.9967 53.3102 12.0678 53.3815C12.1388 53.4529 12.1952 53.5376 12.2336 53.6309C12.2721 53.7241 12.2919 53.8241 12.2919 53.9251C12.2919 54.026 12.2721 54.126 12.2336 54.2193C12.1952 54.3126 12.1388 54.3973 12.0678 54.4686C11.9967 54.54 11.9124 54.5966 11.8196 54.6351C11.7268 54.6736 11.6274 54.6934 11.527 54.6933Z" fill="#6B338B"/>
<path d="M71.1158 24.6033H71.0905L56.5895 30.8305L36.7491 39.3506C36.6715 39.3834 36.5884 39.4005 36.5043 39.401C36.4201 39.4014 36.3368 39.3852 36.2589 39.3532L15.7895 30.8127L0.932196 24.6134L0.909498 24.6033H0.884211C0.649783 24.6035 0.425031 24.6973 0.259266 24.864C0.0935005 25.0307 0.000260116 25.2567 0 25.4925V64.1108C0.00026045 64.3465 0.0935006 64.5726 0.259266 64.7393C0.425031 64.906 0.649783 64.9998 0.884211 65H71.1158C71.3502 64.9998 71.575 64.906 71.7407 64.7393C71.9065 64.5726 71.9997 64.3465 72 64.1108V25.4925C71.9997 25.2567 71.9065 25.0307 71.7407 24.864C71.575 24.6973 71.3502 24.6035 71.1158 24.6033ZM71.7474 64.1108C71.7473 64.2792 71.6807 64.4407 71.5623 64.5598C71.4439 64.6789 71.2833 64.7459 71.1158 64.7459H0.884211C0.716726 64.7459 0.556121 64.6789 0.437691 64.5598C0.319262 64.4407 0.252699 64.2792 0.252632 64.1108V25.4925C0.252861 25.3283 0.316214 25.1704 0.429446 25.0521C0.542678 24.9337 0.697023 24.8639 0.860218 24.8573L15.7895 31.0871L36.1617 39.5882C36.3822 39.6784 36.6293 39.677 36.8489 39.5844L56.5895 31.1061L71.1411 24.8573C71.304 24.8644 71.4579 24.9344 71.5708 25.0527C71.6838 25.171 71.747 25.3285 71.7474 25.4925V64.1108Z" fill="#3F3D56"/>
</svg>
