<svg width="32" height="32" viewBox="0 0 32 32" fill="none" xmlns="http://www.w3.org/2000/svg">
<circle cx="16" cy="16" r="16" fill="#1D8DD0"/>
<path d="M24 12.25V20.6071C24 21.3761 23.3281 22 22.5 22H9.5C8.67188 22 8 21.3761 8 20.6071V12.25C8 11.481 8.67188 10.8571 9.5 10.8571H12.25L12.6344 9.90246C12.8531 9.35982 13.4125 9 14.0375 9H17.9594C18.5844 9 19.1438 9.35982 19.3625 9.90246L19.75 10.8571H22.5C23.3281 10.8571 24 11.481 24 12.25ZM19.75 16.4286C19.75 14.5076 18.0688 12.9464 16 12.9464C13.9313 12.9464 12.25 14.5076 12.25 16.4286C12.25 18.3496 13.9313 19.9107 16 19.9107C18.0688 19.9107 19.75 18.3496 19.75 16.4286ZM18.75 16.4286C18.75 17.8359 17.5156 18.9821 16 18.9821C14.4844 18.9821 13.25 17.8359 13.25 16.4286C13.25 15.0212 14.4844 13.875 16 13.875C17.5156 13.875 18.75 15.0212 18.75 16.4286Z" fill="white"/>
</svg>
