<svg width="23" height="19" viewBox="0 0 23 19" fill="none" xmlns="http://www.w3.org/2000/svg">
<path d="M21.6852 6.45789C21.8489 6.31325 22.0923 6.44856 22.0923 6.67718V16.2187C22.0923 17.4552 21.1899 18.4583 20.0777 18.4583H2.61769C1.50545 18.4583 0.603073 17.4552 0.603073 16.2187V6.68185C0.603073 6.44856 0.842309 6.31791 1.01019 6.46255C1.95035 7.2744 3.19689 8.30554 7.47795 11.7629C8.36354 12.4814 9.85771 13.9932 11.3477 13.9838C12.8461 13.9978 14.3696 12.4534 15.2216 11.7629C19.5027 8.30554 20.745 7.26974 21.6852 6.45789ZM11.3477 12.4861C12.3214 12.5048 13.7233 11.1237 14.4284 10.5545C19.9979 6.0613 20.4219 5.66937 21.7062 4.54958C21.9496 4.33962 22.0923 4.01301 22.0923 3.66774V2.78124C22.0923 1.5448 21.1899 0.541656 20.0777 0.541656H2.61769C1.50545 0.541656 0.603073 1.5448 0.603073 2.78124V3.66774C0.603073 4.01301 0.745775 4.33495 0.989208 4.54958C2.27353 5.6647 2.69743 6.0613 8.26701 10.5545C8.97212 11.1237 10.374 12.5048 11.3477 12.4861Z" fill="#9E9E9E"/>
</svg>
