<svg width="63" height="63" viewBox="0 0 63 63" fill="none" xmlns="http://www.w3.org/2000/svg">
<path d="M31.514 30.2646C29.8836 30.2646 28.5608 31.5861 28.5608 33.2177C28.7011 42.1079 27.5592 50.6781 25.1524 59.2483C24.8165 60.4443 25.4169 63 27.9973 63C29.2868 63 30.4718 62.1485 30.8384 60.8442C32.5033 54.949 34.6579 45.4129 34.4659 33.2177C34.4671 31.5874 33.1456 30.2646 31.514 30.2646ZM31.4082 20.208C23.8702 20.1994 18.6099 25.9998 18.7145 32.6468C18.8068 38.5457 18.2531 44.4482 17.0693 50.1871C16.7383 51.7843 17.767 53.3482 19.363 53.6767C20.9687 54.0053 22.5216 52.9803 22.8526 51.3831C24.1249 45.2197 24.7192 38.884 24.6208 32.5545C24.5704 29.3614 27.0719 26.0958 31.3208 26.1142C35.1734 26.1721 38.353 29.2322 38.4108 32.9396C38.5056 38.8521 38.0651 44.7928 37.1053 50.603C36.8383 52.21 37.9285 53.7309 39.5367 53.9967C41.994 54.4064 42.8357 52.1386 42.9304 51.564C43.9492 45.408 44.4144 39.1104 44.3172 32.8474C44.2089 25.9813 38.4182 20.3113 31.4082 20.208ZM17.7879 17.7741C16.5205 16.7479 14.6662 16.9374 13.6338 18.2023C10.4813 22.0783 8.78695 26.9731 8.8657 31.9836C8.9383 36.6077 8.56178 41.2453 7.74473 45.771C7.4568 47.3767 8.52117 48.9124 10.1269 49.2028C12.6015 49.6334 13.4579 47.3804 13.5588 46.8206C14.4435 41.9184 14.8508 36.8956 14.772 31.8913C14.7142 28.2146 15.9041 24.7693 18.2174 21.9282C19.2448 20.6633 19.0529 18.804 17.7879 17.7741ZM31.258 10.1046C29.3619 10.0542 27.4595 10.2818 25.6249 10.7161C24.0388 11.0927 23.0569 12.6824 23.4309 14.271C23.8075 15.857 25.3997 16.834 26.9858 16.4649C28.3455 16.1437 29.7507 16.001 31.1694 16.0109C40.451 16.1499 48.1169 23.5782 48.2584 32.5705C48.331 37.2315 48.1009 41.9356 47.5718 46.5523C47.3872 48.1728 48.55 49.6383 50.1693 49.8229C52.2267 50.0629 53.3083 48.3611 53.44 47.2254C53.9991 42.3304 54.2412 37.4044 54.1647 32.4782C53.9728 20.3273 43.697 10.2892 31.258 10.1046ZM62.2748 25.0486C61.9229 23.4589 60.3663 22.4401 58.7544 22.8006C57.1622 23.1525 56.1556 24.7275 56.5075 26.321C57.0871 28.9554 57.1117 30.9241 57.0859 33.9006C57.0723 35.5335 58.384 36.8648 60.0144 36.8784H60.039C61.6596 36.8784 62.9787 35.5728 62.9922 33.9499C63.0143 31.2207 63.0414 28.5223 62.2748 25.0486ZM57.3381 13.8858C51.3457 5.34761 41.54 0.158722 31.1067 0.00245283C22.5191 -0.100907 14.5764 3.06509 8.66883 8.97503C2.96308 14.6881 -0.1119 22.2764 0.0160701 30.3495L0.00130432 32.9913C-0.0466845 34.6217 1.23548 35.9826 2.86587 36.0294C2.89417 36.0318 2.92493 36.0318 2.95446 36.0318C4.54425 36.0318 5.85717 34.7644 5.90393 33.1648L5.92362 30.256C5.82149 23.796 8.28123 17.7224 12.8488 13.1525C17.6181 8.37825 24.088 5.81027 31.0206 5.90993C39.5663 6.03667 47.5989 10.2855 52.5073 17.2782C53.4436 18.6145 55.2832 18.9332 56.6195 17.9993C57.9534 17.0617 58.2758 15.2197 57.3381 13.8858Z" fill="#6B338B" fill-opacity="0.74"/>
</svg>
