<svg width="19" height="21" viewBox="0 0 19 21" fill="none" xmlns="http://www.w3.org/2000/svg">
<path d="M9.34769 11.6276C12.1283 11.6276 14.3842 9.14482 14.3842 6.08464C14.3842 3.02446 12.1283 0.541668 9.34769 0.541668C6.5671 0.541668 4.31115 3.02446 4.31115 6.08464C4.31115 9.14482 6.5671 11.6276 9.34769 11.6276ZM13.8246 12.8594H13.0897C12.3058 12.8594 11.5432 13.0824 10.7861 13.2853C10.3246 13.4091 9.84291 13.4753 9.34769 13.4753C8.85037 13.4753 8.3677 13.4085 7.90482 13.2838C7.15091 13.0806 6.39125 12.8594 5.61045 12.8594H4.87077C2.39797 12.8594 0.393845 15.065 0.393845 17.7865V18.4023C0.393845 19.4224 1.14583 20.25 2.07269 20.25H16.6227C17.5496 20.25 18.3015 19.4224 18.3015 18.4023V17.7865C18.3015 15.065 16.2974 12.8594 13.8246 12.8594Z" fill="#9E9E9E"/>
</svg>
