<svg width="17" height="23" viewBox="0 0 17 23" fill="none" xmlns="http://www.w3.org/2000/svg">
<path d="M14.1229 0.75H2.83538C1.50002 0.75 0.416626 1.65283 0.416626 2.76562V20.2344C0.416626 21.3472 1.50002 22.25 2.83538 22.25H14.1229C15.4582 22.25 16.5416 21.3472 16.5416 20.2344V2.76562C16.5416 1.65283 15.4582 0.75 14.1229 0.75ZM8.47913 20.9062C7.58721 20.9062 6.86663 20.3058 6.86663 19.5625C6.86663 18.8192 7.58721 18.2188 8.47913 18.2188C9.37104 18.2188 10.0916 18.8192 10.0916 19.5625C10.0916 20.3058 9.37104 20.9062 8.47913 20.9062ZM14.1229 16.3711C14.1229 16.6482 13.8508 16.875 13.5182 16.875H3.44006C3.10749 16.875 2.83538 16.6482 2.83538 16.3711V3.26953C2.83538 2.99238 3.10749 2.76562 3.44006 2.76562H13.5182C13.8508 2.76562 14.1229 2.99238 14.1229 3.26953V16.3711Z" fill="#9E9E9E"/>
</svg>
