<svg width="98" height="196" viewBox="0 0 98 196" fill="none" xmlns="http://www.w3.org/2000/svg">
<path d="M97.7692 46.4025H96.6958V17.0107C96.6958 12.4992 94.9034 8.17245 91.7128 4.98232C88.5222 1.79219 84.1949 0 79.6827 0H17.4032C12.891 0 8.56367 1.79219 5.37309 4.98232C2.18251 8.17245 0.390076 12.4992 0.390076 17.0107V178.257C0.390076 182.768 2.18251 187.095 5.37309 190.285C8.56367 193.475 12.891 195.267 17.4032 195.267H79.6825C84.1946 195.267 88.522 193.475 91.7125 190.285C94.9031 187.095 96.6956 182.768 96.6956 178.257V67.324H97.769L97.7692 46.4025Z" fill="#3F3D56"/>
<path d="M80.3691 4.42519H72.2395C72.6136 5.3417 72.7564 6.33612 72.6555 7.32084C72.5546 8.30556 72.213 9.25035 71.6608 10.072C71.1086 10.8936 70.3628 11.5667 69.489 12.0322C68.6153 12.4977 67.6405 12.7411 66.6504 12.7411H30.9715C29.9816 12.741 29.0069 12.4975 28.1333 12.0321C27.2597 11.5667 26.514 10.8935 25.9618 10.0721C25.4097 9.25058 25.0681 8.30593 24.9671 7.32135C24.8661 6.33676 25.0088 5.34244 25.3826 4.42599H17.7885C14.4187 4.42599 11.187 5.76443 8.80422 8.14686C6.42145 10.5293 5.08282 13.7606 5.08282 17.1298V178.138C5.08282 181.508 6.42145 184.739 8.80422 187.121C11.187 189.504 14.4187 190.842 17.7885 190.842H80.3667C83.7364 190.842 86.9681 189.504 89.3509 187.121C91.7337 184.739 93.0723 181.508 93.0723 178.138V178.138V17.129C93.0723 13.7598 91.7337 10.5285 89.3509 8.14605C86.9681 5.76362 83.7364 4.42519 80.3667 4.42519H80.3691Z" fill="white"/>
<path d="M87.6512 88.665H10.504V103.894H87.6512V88.665Z" fill="#E6E6E6"/>
<path d="M12.1487 102.25H86.0068V90.3105H12.1487V102.25Z" fill="white"/>
<path d="M18.6142 91.6319C19.5141 91.6319 20.3937 91.8987 21.1419 92.3986C21.8901 92.8985 22.4733 93.609 22.8177 94.4402C23.162 95.2715 23.2521 96.1861 23.0766 97.0686C22.901 97.951 22.4677 98.7616 21.8314 99.3978C21.1951 100.034 20.3844 100.467 19.5018 100.643C18.6192 100.818 17.7044 100.728 16.8731 100.384C16.0417 100.04 15.3311 99.4566 14.8312 98.7085C14.3312 97.9604 14.0644 97.0808 14.0644 96.1811C14.0644 95.5837 14.1821 94.9921 14.4107 94.4402C14.6394 93.8883 14.9745 93.3868 15.397 92.9644C15.8195 92.5419 16.3211 92.2068 16.8731 91.9782C17.4251 91.7496 18.0167 91.6319 18.6142 91.6319Z" fill="#6B338B"/>
<path d="M74.3976 94.4009H29.494V95.3899H74.3976V94.4009Z" fill="#E6E6E6"/>
<path d="M74.3976 96.9721H29.494V97.961H74.3976V96.9721Z" fill="#E6E6E6"/>
<path d="M87.6512 110.398H10.504V125.627H87.6512V110.398Z" fill="#E6E6E6"/>
<path d="M12.1487 123.983H86.0068V112.043H12.1487V123.983Z" fill="white"/>
<path d="M18.6142 122.463C21.127 122.463 23.164 120.426 23.164 117.914C23.164 115.402 21.127 113.365 18.6142 113.365C16.1014 113.365 14.0644 115.402 14.0644 117.914C14.0644 120.426 16.1014 122.463 18.6142 122.463Z" fill="#2B3C90"/>
<path d="M74.3976 116.134H29.494V117.123H74.3976V116.134Z" fill="#E6E6E6"/>
<path d="M74.3976 118.705H29.494V119.694H74.3976V118.705Z" fill="#E6E6E6"/>
<path d="M87.6512 132.131H10.504V147.36H87.6512V132.131Z" fill="#E6E6E6"/>
<path d="M12.1487 145.716H86.0068V133.776H12.1487V145.716Z" fill="white"/>
<path d="M18.6142 144.196C21.127 144.196 23.164 142.159 23.164 139.647C23.164 137.135 21.127 135.098 18.6142 135.098C16.1014 135.098 14.0644 137.135 14.0644 139.647C14.0644 142.159 16.1014 144.196 18.6142 144.196Z" fill="#6B338B"/>
<path d="M74.3976 137.867H29.494V138.856H74.3976V137.867Z" fill="#E6E6E6"/>
<path d="M74.3976 140.438H29.494V141.427H74.3976V140.438Z" fill="#E6E6E6"/>
<path d="M49.0776 73.4943C60.9338 73.4943 70.5452 63.8843 70.5452 52.0297C70.5452 40.1751 60.9338 30.5651 49.0776 30.5651C37.2213 30.5651 27.6099 40.1751 27.6099 52.0297C27.6099 63.8843 37.2213 73.4943 49.0776 73.4943Z" fill="#2B3C90"/>
<path d="M57.6768 43.0222H40.4783C39.7184 43.0231 38.9898 43.3253 38.4524 43.8626C37.9151 44.3999 37.6128 45.1284 37.6119 45.8883V58.1711C37.6128 58.931 37.915 59.6595 38.4524 60.1967C38.9898 60.734 39.7184 61.0363 40.4783 61.0371H57.6768C58.4368 61.0363 59.1654 60.7341 59.7028 60.1968C60.2401 59.6595 60.5424 58.931 60.5432 58.1711V45.8883C60.5424 45.1284 60.2401 44.3999 59.7027 43.8626C59.1654 43.3253 58.4368 43.0231 57.6768 43.0222ZM57.6768 44.66C57.7795 44.6604 57.8817 44.6737 57.9811 44.6996L49.0796 51.7994L40.2301 44.6852C40.3118 44.6684 40.395 44.6599 40.4783 44.66H57.6768ZM57.6768 59.3994H40.4783C40.1526 59.399 39.8404 59.2695 39.6101 59.0392C39.3798 58.809 39.2502 58.4968 39.2499 58.1711V45.9986L48.5644 53.4867C48.7095 53.6033 48.8899 53.667 49.076 53.6674C49.2621 53.6678 49.4428 53.6047 49.5883 53.4887L58.9053 46.0574V58.1711C58.9049 58.4968 58.7754 58.809 58.5451 59.0392C58.3148 59.2695 58.0025 59.399 57.6768 59.3994Z" fill="white"/>
<rect x="25" y="183" width="49" height="1" rx="0.5" fill="#E4E4E4"/>
</svg>
