<svg width="281" height="168" viewBox="0 0 281 168" fill="none" xmlns="http://www.w3.org/2000/svg">
<g clip-path="url(#clip0)">
<path d="M215.14 166.1C211.543 163.06 209.357 158.258 209.93 153.583C210.504 148.908 214.053 144.61 218.657 143.618C223.261 142.625 228.51 145.373 229.908 149.871C230.678 141.199 231.564 132.165 236.175 124.781C240.349 118.094 247.579 113.31 255.415 112.454C263.25 111.598 271.5 114.831 276.387 121.016C281.274 127.2 282.47 136.192 279.048 143.292C276.527 148.523 271.881 152.415 267.014 155.582C251.287 165.73 232.425 169.856 213.898 167.203L215.14 166.1Z" fill="#F2F2F2"/>
<path d="M268.639 115.01C262.173 120.276 256.242 126.166 250.93 132.595C242.618 142.62 235.891 153.861 230.985 165.925C230.626 166.805 232.055 167.188 232.41 166.318C240.438 146.711 253.253 129.43 269.684 116.055C270.421 115.454 269.37 114.414 268.639 115.01Z" fill="white"/>
<path d="M90.4585 165.274C95.3997 161.099 98.4011 154.503 97.614 148.082C96.8269 141.661 91.9517 135.758 85.628 134.394C79.3042 133.031 72.0956 136.805 70.1748 142.983C69.1178 131.073 67.8997 118.664 61.5677 108.522C55.8343 99.3383 45.9039 92.7671 35.1415 91.5915C24.3792 90.4159 13.0478 94.856 6.33576 103.351C-0.376313 111.845 -2.01974 124.195 2.68123 133.947C6.14426 141.132 12.5244 146.478 19.2092 150.828C40.536 164.706 66.9918 170.493 92.1649 166.789" fill="#F2F2F2"/>
<path d="M16.9785 95.1021C25.8587 102.335 34.0054 110.425 41.3007 119.254C48.5972 128.074 55.0209 137.582 60.4817 147.642C63.5341 153.286 66.2761 159.092 68.6955 165.034C69.1888 166.243 67.2259 166.769 66.7381 165.574C62.4527 155.097 57.1509 145.066 50.9087 135.624C44.6968 126.216 37.587 117.432 29.6791 109.397C25.2063 104.855 20.4872 100.562 15.5431 96.5375C14.5297 95.7123 15.9734 94.2837 16.9785 95.1021L16.9785 95.1021Z" fill="white"/>
<path d="M201.706 167.632H83.8156V46.6722C83.8156 20.937 104.752 0 130.487 0H155.035C180.769 0 201.706 20.937 201.706 46.6722V167.632Z" fill="#F2F2F2"/>
<path d="M177.159 167.632H83.8155V46.6722C83.7897 36.8111 86.9123 27.1991 92.7286 19.2359C92.943 18.9437 93.1568 18.6552 93.3774 18.3699C96.1907 14.6801 99.5386 11.4305 103.311 8.72848C103.524 8.57345 103.738 8.42111 103.955 8.26876C107.111 6.0845 110.525 4.29892 114.12 2.95265C114.333 2.87175 114.551 2.79068 114.768 2.71293C118.019 1.55277 121.389 0.758065 124.816 0.343491C125.028 0.31447 125.246 0.291761 125.464 0.269051C128.804 -0.0880053 132.172 -0.0880053 135.511 0.269051C135.728 0.291761 135.947 0.314467 136.162 0.343801C139.587 0.758402 142.956 1.55301 146.207 2.71294C146.424 2.79069 146.641 2.87175 146.855 2.95282C150.406 4.28211 153.78 6.04104 156.902 8.19038C157.119 8.33942 157.337 8.49177 157.55 8.64411C159.665 10.1534 161.651 11.8348 163.488 13.6711C164.962 15.1441 166.335 16.7142 167.598 18.3709C167.818 18.6553 168.032 18.9437 168.246 19.2355C174.062 27.1988 177.185 36.8109 177.159 46.6722V167.632Z" fill="#CCCCCC"/>
<path d="M169.569 113.531C172.423 113.531 174.737 111.218 174.737 108.363C174.737 105.509 172.423 103.196 169.569 103.196C166.715 103.196 164.401 105.509 164.401 108.363C164.401 111.218 166.715 113.531 169.569 113.531Z" fill="#1D8DD0"/>
<path d="M192.049 164.009H188.089L186.205 148.736L192.049 148.736L192.049 164.009Z" fill="#FFB8B8"/>
<path d="M185.26 162.878H192.897V167.686H180.452C180.452 167.055 180.576 166.429 180.818 165.846C181.06 165.263 181.414 164.733 181.86 164.286C182.307 163.84 182.837 163.485 183.42 163.244C184.004 163.002 184.629 162.878 185.26 162.878Z" fill="#2F2E41"/>
<path d="M211.751 164.009H207.791L205.907 148.736L211.752 148.736L211.751 164.009Z" fill="#FFB8B8"/>
<path d="M204.963 162.878H212.599V167.686H200.154C200.154 167.055 200.279 166.429 200.52 165.846C200.762 165.263 201.116 164.733 201.563 164.286C202.009 163.84 202.539 163.485 203.123 163.244C203.706 163.002 204.331 162.878 204.963 162.878Z" fill="#2F2E41"/>
<path d="M172.184 109.387C171.9 108.967 171.71 108.49 171.63 107.99C171.549 107.489 171.579 106.976 171.718 106.488C171.857 106.001 172.101 105.549 172.434 105.166C172.766 104.783 173.178 104.477 173.641 104.27L187.102 67.1692L193.726 70.7839L178.356 106.239C178.652 107.04 178.644 107.922 178.333 108.717C178.022 109.513 177.43 110.166 176.669 110.554C175.908 110.942 175.031 111.038 174.205 110.823C173.378 110.608 172.659 110.097 172.184 109.387Z" fill="#FFB8B8"/>
<path d="M209.728 116.359C209.288 116.106 208.909 115.761 208.617 115.346C208.325 114.931 208.127 114.457 208.038 113.958C207.949 113.458 207.971 112.946 208.101 112.455C208.232 111.965 208.468 111.51 208.794 111.121L204.624 71.8744L212.162 72.2188L213.895 110.823C214.512 111.413 214.891 112.209 214.96 113.061C215.029 113.912 214.784 114.759 214.27 115.441C213.757 116.124 213.011 116.594 212.174 116.763C211.336 116.932 210.466 116.788 209.728 116.359Z" fill="#FFB8B8"/>
<path d="M197.703 60.2971C202.084 60.2971 205.636 56.7454 205.636 52.3641C205.636 47.9828 202.084 44.4311 197.703 44.4311C193.322 44.4311 189.77 47.9828 189.77 52.3641C189.77 56.7454 193.322 60.2971 197.703 60.2971Z" fill="#FFB8B8"/>
<path d="M209.678 107.433H185.761L185.79 107.247C185.833 106.969 190.052 79.3277 186.94 70.2849C186.628 69.3963 186.656 68.4235 187.018 67.5539C187.379 66.6843 188.05 65.9793 188.901 65.5746H188.901C193.349 63.4799 201.887 60.9005 209.094 67.1602C210.155 68.0965 210.983 69.2667 211.513 70.5782C212.043 71.8897 212.261 73.3066 212.149 74.7169L209.678 107.433Z" fill="#2B3C90"/>
<path d="M190.355 83.4126L179.587 81.2281L184.634 69.2678C184.937 68.1094 185.686 67.1181 186.718 66.5113C187.75 65.9045 188.98 65.7317 190.139 66.031C191.298 66.3302 192.292 67.077 192.901 68.1075C193.51 69.138 193.686 70.3681 193.389 71.528L190.355 83.4126Z" fill="#1D8DD0"/>
<path d="M204.145 87.4685L203.498 72.6299C203.007 69.8405 204.604 67.2035 207.059 66.7725C209.516 66.3431 211.915 68.2777 212.408 71.0876L214.841 84.9529L204.145 87.4685Z" fill="#1D8DD0"/>
<path d="M208.882 105.656C212.73 120.313 213.15 138.947 212.112 159.273L206.944 158.627L197.577 119.868L192.409 159.273L186.596 158.95C184.859 137.623 183.168 119.314 185.95 107.271L208.882 105.656Z" fill="#2F2E41"/>
<path d="M202.93 58.4949C201.45 60.0714 198.702 59.2251 198.509 57.0715C198.494 56.9043 198.495 56.736 198.512 56.569C198.612 55.615 199.163 54.7489 199.031 53.7417C199.001 53.491 198.908 53.2521 198.76 53.0476C197.58 51.4684 194.812 53.7539 193.699 52.3243C193.016 51.4477 193.819 50.0675 193.295 49.0878C192.604 47.7946 190.556 48.4325 189.273 47.7244C187.844 46.9364 187.929 44.7447 188.87 43.4116C190.017 41.7858 192.027 40.9182 194.013 40.7932C195.998 40.6682 197.97 41.2049 199.824 41.9274C201.93 42.7482 204.019 43.8826 205.315 45.7346C206.891 47.9869 207.043 51.0149 206.255 53.6485C205.775 55.2505 204.139 57.2076 202.93 58.4949Z" fill="#2F2E41"/>
<path d="M271.304 167.84H32.8439C32.7421 167.84 32.6446 167.799 32.5727 167.727C32.5008 167.655 32.4604 167.557 32.4604 167.456C32.4604 167.354 32.5008 167.256 32.5727 167.184C32.6446 167.112 32.7421 167.071 32.8439 167.071H271.304C271.406 167.071 271.504 167.112 271.576 167.184C271.648 167.256 271.688 167.354 271.688 167.456C271.688 167.557 271.648 167.655 271.576 167.727C271.504 167.799 271.406 167.84 271.304 167.84Z" fill="#3F3D56"/>
<path d="M151.482 132.588H109.493C108.94 132.591 108.409 132.374 108.015 131.986C107.621 131.597 107.398 131.069 107.394 130.516V36.7936C107.398 36.2406 107.621 35.7119 108.015 35.3235C108.409 34.935 108.94 34.7185 109.493 34.7215H151.482C152.035 34.7185 152.566 34.935 152.96 35.3235C153.353 35.7119 153.577 36.2406 153.581 36.7936V130.516C153.577 131.069 153.353 131.597 152.96 131.986C152.566 132.374 152.035 132.591 151.482 132.588Z" fill="white"/>
<path d="M153.581 65.047H107.394V65.693H153.581V65.047Z" fill="#CCCCCC"/>
<path d="M153.743 101.904H107.555V102.55H153.743V101.904Z" fill="#CCCCCC"/>
<path d="M122.574 34.7215H121.928V132.911H122.574V34.7215Z" fill="#CCCCCC"/>
<path d="M138.724 34.7215H138.078V132.911H138.724V34.7215Z" fill="#CCCCCC"/>
</g>
<defs>
<clipPath id="clip0">
<rect width="281" height="168" fill="white"/>
</clipPath>
</defs>
</svg>
