<svg width="15" height="20" viewBox="0 0 15 20" fill="none" xmlns="http://www.w3.org/2000/svg">
<path d="M15 5.625C15 3.89844 13.6016 2.5 11.875 2.5C10.1484 2.5 8.75 3.89844 8.75 5.625C8.75 7.04688 9.69922 8.24609 10.9961 8.625C10.9727 9.25391 10.832 9.73828 10.5664 10.0664C9.96484 10.8164 8.64062 10.9414 7.23828 11.0703C6.13672 11.1719 4.99609 11.2812 4.0625 11.7305V6.10547C5.33203 5.70703 6.25 4.52344 6.25 3.125C6.25 1.39844 4.85156 0 3.125 0C1.39844 0 0 1.39844 0 3.125C0 4.52344 0.917969 5.70703 2.1875 6.10547V13.8906C0.917969 14.293 0 15.4766 0 16.875C0 18.6016 1.39844 20 3.125 20C4.85156 20 6.25 18.6016 6.25 16.875C6.25 15.5469 5.42188 14.4102 4.25 13.9609C4.37109 13.7578 4.55469 13.5781 4.83203 13.4375C5.46484 13.1172 6.41016 13.0313 7.41406 12.9375C9.0625 12.7852 10.9297 12.6094 12.0312 11.2422C12.5781 10.5625 12.8555 9.6875 12.875 8.58984C14.1094 8.16797 15 7 15 5.625ZM3.125 2.5C3.46875 2.5 3.75 2.78125 3.75 3.125C3.75 3.46875 3.46875 3.75 3.125 3.75C2.78125 3.75 2.5 3.46875 2.5 3.125C2.5 2.78125 2.78125 2.5 3.125 2.5ZM3.125 17.5C2.78125 17.5 2.5 17.2188 2.5 16.875C2.5 16.5312 2.78125 16.25 3.125 16.25C3.46875 16.25 3.75 16.5312 3.75 16.875C3.75 17.2188 3.46875 17.5 3.125 17.5ZM11.875 5C12.2188 5 12.5 5.28125 12.5 5.625C12.5 5.96875 12.2188 6.25 11.875 6.25C11.5312 6.25 11.25 5.96875 11.25 5.625C11.25 5.28125 11.5312 5 11.875 5Z" fill="white"/>
</svg>
